HIERARCHY
ROOT Hips
{
  OFFSET -31.5692 30.0904 122.763
  CHANNELS 6 Xposition Yposition Zposition Zrotation Xrotation Yrotation
  JOINT LeftUpLeg
  {
    OFFSET 8.64259 1.95398 -2.38835
    CHANNELS 3 Zrotation Xrotation Yrotation
    JOINT LeftLeg
    {
      OFFSET 43.7702 0 0
      CHANNELS 3 Zrotation Xrotation Yrotation
      JOINT LeftFoot
      {
        OFFSET 40.6238 0 0
        CHANNELS 3 Zrotation Xrotation Yrotation
        JOINT LeftToeBase
        {
          OFFSET 12.7242 0 0
          CHANNELS 3 Zrotation Xrotation Yrotation
          End Site
          {
            OFFSET 0 0 0
          }
        }
      }
    }
  }
  JOINT RightUpLeg
  {
    OFFSET -8.2249 1.95398 -2.59336
    CHANNELS 3 Zrotation Xrotation Yrotation
    JOINT RightLeg
    {
      OFFSET 43.5653 0 0
      CHANNELS 3 Zrotation Xrotation Yrotation
      JOINT RightFoot
      {
        OFFSET 40.6238 0 0
        CHANNELS 3 Zrotation Xrotation Yrotation
        JOINT RightToeBase
        {
          OFFSET 12.7242 0 0
          CHANNELS 3 Zrotation Xrotation Yrotation
          End Site
          {
            OFFSET 0 0 0
          }
        }
      }
    }
  }
  JOINT Spine
  {
    OFFSET 0.165834 0.87714 6.61349
    CHANNELS 3 Zrotation Xrotation Yrotation
    JOINT Spine1
    {
      OFFSET 7.38963 1.71661e-005 0
      CHANNELS 3 Zrotation Xrotation Yrotation
      JOINT Spine2
      {
        OFFSET 11.9445 1.14441e-005 0
        CHANNELS 3 Zrotation Xrotation Yrotation
        JOINT Spine3
        {
          OFFSET 14.7254 4.19617e-005 0
          CHANNELS 3 Zrotation Xrotation Yrotation
          JOINT Spine4
          {
            OFFSET 10.9679 0 0
            CHANNELS 3 Zrotation Xrotation Yrotation
            JOINT RightShoulder
            {
              OFFSET 2.46616 -1.6653 3.69651
              CHANNELS 3 Zrotation Xrotation Yrotation
              JOINT RightArm
              {
                OFFSET 13.0012 0 0
                CHANNELS 3 Zrotation Xrotation Yrotation
                JOINT RightForeArm
                {
                  OFFSET 28.7848 1.62311e-005 0
                  CHANNELS 3 Zrotation Xrotation Yrotation
                  JOINT RightHand
                  {
                    OFFSET 26.5688 1.62095e-005 0
                    CHANNELS 3 Zrotation Xrotation Yrotation
                    End Site
                    {
                      OFFSET 0 0 0
                    }
                  }
                }
              }
            }
            JOINT LeftShoulder
            {
              OFFSET 2.38034 -1.29275 -3.7523
              CHANNELS 3 Zrotation Xrotation Yrotation
              JOINT LeftArm
              {
                OFFSET 16.3182 6.07031e-005 0
                CHANNELS 3 Zrotation Xrotation Yrotation
                JOINT LeftForeArm
                {
                  OFFSET 27.0901 0 0
                  CHANNELS 3 Zrotation Xrotation Yrotation
                  JOINT LeftHand
                  {
                    OFFSET 24.5451 1.51738e-005 0
                    CHANNELS 3 Zrotation Xrotation Yrotation
                    End Site
                    {
                      OFFSET 0 0 0
                    }
                  }
                }
              }
            }
            JOINT Neck
            {
              OFFSET 5.0226 -0.0266342 0
              CHANNELS 3 Zrotation Xrotation Yrotation
              JOINT Head
              {
                OFFSET 6.69364 2.86102e-005 0
                CHANNELS 3 Zrotation Xrotation Yrotation
                End Site
                {
                  OFFSET 0 0 0
                }
              }
            }
          }
        }
      }
    }
  }
}
MOTION
Frames:	18
Frame Time:	0.0416667
10.1866 101.459 19.4673 -152.245 -81.6549 -152.853 -174.077 -2.15492 88.0486 -13.4161 5.86574 0.224863 69.334 5.16616 -0.994559 17.2511 -8.84354 6.65455 172.13 -3.66672 89.7994 -14.0463 -1.66928 0.474274 69.2874 -5.50464 2.48957 24.4645 1.33336 2.81037 0.189884 7.66726 -90.1073 11.5397 0.327582 -0.247427 -0.131239 0.316383 -0.261612 -22.6667 0.386802 -0.137544 -2.65401 0.386802 -0.137541 90.0562 -30.6116 -106.416 39.0183 -8.25113 -6.96903 5.29295 -35.2494 -15.5042 -20.8844 -0.885472 -6.82337 -88.0021 -53.7786 82.3816 -21.9849 14.154 -13.0803 -5.51097 13.8025 -0.884475 5.24333 -0.217234 -13.3047 8.16751 -0.527917 -0.366376 -6.03334 -0.461384 0.958914 
10.165 101.459 19.4497 -151.871 -81.7536 -152.367 -174.05 -1.93482 88.1544 -13.5805 5.57378 0.241796 69.4908 5.17099 -1.29188 16.953 -8.95751 6.52149 172.279 -3.3845 90.0042 -14.2063 -1.98756 0.414775 69.0672 -5.45991 2.03501 24.4635 1.26536 3.08554 0.205804 7.64642 -90.1401 11.5815 0.343886 -0.314706 -0.0894327 0.329702 -0.329547 -22.6248 0.422564 -0.196813 -2.61217 0.422563 -0.196809 90.2016 -30.3266 -106.236 39.2359 -8.28016 -6.87541 5.91056 -34.9599 -14.6776 -21.7115 -0.728845 -7.70463 -88.3066 -54.0797 81.9955 -21.8398 14.0109 -12.8862 -5.33738 13.9306 -1.13208 4.85949 -0.180331 -13.4009 8.19118 -0.633481 -0.376495 -6.44916 -0.574612 1.31023 
10.2259 101.464 19.4814 -153.281 -81.8463 -153.97 -174.14 -2.15162 87.9382 -13.2561 6.04848 0.192419 69.9361 5.60426 -1.46415 16.0873 -10.3227 8.18267 172.136 -3.36353 89.7738 -14.3865 -2.27347 0.420746 69.105 -5.46186 1.55291 23.4841 1.51356 3.81479 0.199699 7.65773 -90.1695 11.5589 0.317965 -0.370452 -0.112093 0.301359 -0.384101 -22.6473 0.414596 -0.25777 -2.63467 0.414603 -0.25777 90.5188 -29.8495 -105.785 39.4059 -8.27818 -7.01602 6.59947 -33.7353 -13.7179 -23.7517 -0.283432 -10.0984 -88.8796 -54.9471 81.3294 -21.057 14.1483 -13.1131 -5.70105 12.8566 -1.35357 4.8777 -0.282071 -14.2234 7.81015 -0.880211 0.243092 -5.44358 -0.932527 1.14272 
10.2427 101.467 19.565 -153.345 -81.9399 -154.076 -174.099 -2.15692 87.9071 -13.2292 6.09172 0.126628 70.0569 5.70243 -1.39977 16.0845 -10.2433 8.02346 171.973 -3.30079 89.6429 -14.3817 -2.01571 0.508097 69.2743 -5.5156 2.04217 23.45 1.57196 3.64051 0.171486 7.65739 -90.1625 11.5594 0.265137 -0.350987 -0.111536 0.249428 -0.362324 -22.6467 0.358357 -0.25508 -2.63404 0.358366 -0.255075 90.4086 -29.9203 -105.978 39.2753 -8.47428 -7.06136 6.83555 -33.902 -13.5745 -24.0044 -0.291364 -10.0223 -88.7571 -54.9168 81.4986 -21.157 14.0423 -13.0694 -5.62136 13.0592 -1.2779 5.06922 -0.251397 -13.6378 8.02125 -0.757014 0.338144 -5.46808 -0.826693 0.832592 
10.2286 101.462 19.6006 -151.089 -81.7047 -151.603 -173.929 -2.14366 88.1516 -13.4874 5.66798 0.0844292 70.261 5.64976 -1.80444 16.3189 -10.4258 8.65662 172.157 -3.40136 89.8814 -14.2279 -2.18934 0.457134 69.0256 -5.46143 1.89767 23.528 1.46632 3.92311 0.241913 7.66434 -90.1534 11.5458 0.409508 -0.34777 -0.125154 0.393805 -0.365471 -22.6607 0.4951 -0.208612 -2.64801 0.495094 -0.208624 90.2923 -30.4043 -106.029 39.0659 -8.21356 -6.84595 6.62007 -34.2981 -13.6612 -23.2725 -0.439268 -9.34609 -89.0819 -54.2724 80.9195 -21.6783 13.7324 -12.6966 -5.14204 14.2299 -1.37813 4.70866 -0.238951 -14.4873 7.7864 -0.959273 -0.46932 -5.09243 -0.861361 1.32368 
10.3148 101.456 19.647 -154.723 -82.0226 -155.548 -174.163 -2.0603 87.7774 -13.5614 6.64286 0.12 70.0104 5.7095 -1.21904 16.5612 -10.2359 8.58135 171.994 -3.2907 89.4913 -14.3267 -2.72167 0.403103 68.8264 -5.28901 1.56841 24.1924 1.29199 3.46431 0.167809 7.64839 -90.123 11.5774 0.276243 -0.273676 -0.0935574 0.263935 -0.285577 -22.6288 0.345723 -0.178004 -2.61619 0.345729 -0.177997 90.2428 -30.5307 -106.08 38.927 -8.63316 -6.60012 6.93911 -33.5406 -13.7813 -24.7356 -0.171782 -10.4957 -89.1093 -54.7327 80.9648 -21.1677 14.252 -12.8017 -5.31271 12.4348 -1.21271 4.19326 -0.22915 -14.4114 7.52829 -0.964974 -0.483777 -4.84006 -0.863488 1.42349 
10.287 101.477 19.7365 -153.177 -81.8423 -153.911 -174.071 -2.30885 87.8912 -13.3173 6.14224 0.0969888 70.027 5.71815 -1.35069 16.6038 -10.198 8.55967 171.958 -3.4754 89.5834 -14.3473 -2.19687 0.460453 69.1941 -5.43922 1.85496 23.4077 1.50536 3.9757 0.19632 7.64195 -90.1345 11.5903 0.327624 -0.301788 -0.0806014 0.314026 -0.315922 -22.616 0.403164 -0.18938 -2.60331 0.403178 -0.18937 90.3921 -30.492 -105.8 39.2487 -8.45509 -6.53321 6.98969 -33.6729 -13.4463 -24.6556 -0.117387 -10.8436 -88.7854 -54.6973 81.4192 -21.4395 13.6627 -12.6744 -5.16966 14.3112 -0.966417 5.16795 -0.254898 -14.0677 7.4586 -0.920509 -0.479467 -4.95687 -0.825568 1.65527 
10.3146 101.492 19.8087 -153.161 -81.8404 -153.937 -174.11 -2.39415 87.8132 -13.276 6.08275 0.114151 70.0063 5.71512 -1.31194 16.488 -9.99706 8.02755 171.933 -3.53389 89.5122 -14.2993 -2.55174 0.42463 69.067 -5.35751 1.77074 23.6169 1.53619 3.49318 0.214858 7.66904 -90.1119 11.5362 0.37516 -0.261351 -0.134737 0.363295 -0.277613 -22.6702 0.436359 -0.13651 -2.65761 0.436355 -0.136522 90.571 -30.9643 -105.278 39.0177 -8.26004 -6.92569 6.76921 -33.8125 -13.5408 -24.1825 -0.0833941 -11.1818 -88.7682 -54.433 81.3965 -21.4886 13.6725 -13.1206 -5.38416 14.0078 -0.810732 5.06191 -0.224888 -13.7095 7.8506 -1.0934 -1.08581 -5.25792 -0.877688 2.07942 
10.3276 101.484 19.8667 -151.416 -81.8486 -152.048 -174.036 -2.20915 87.9534 -13.4399 6.23824 0.0852986 70.0766 5.80324 -0.999664 16.2438 -10.092 7.92038 172.035 -3.47225 89.6882 -14.2128 -2.77112 0.434584 68.9322 -5.39009 1.3167 23.622 1.43794 3.87442 0.23178 7.64372 -90.1154 11.5869 0.407057 -0.272076 -0.0839807 0.394689 -0.289735 -22.6196 0.470007 -0.137157 -2.60693 0.470004 -0.137163 90.5804 -31.0949 -105.212 39.0617 -8.42028 -6.84945 6.77113 -34.3348 -13.7025 -22.5581 -0.367741 -9.90448 -88.6341 -54.381 81.579 -21.6529 13.5124 -13.1137 -5.19204 13.696 -0.649068 4.91626 -0.222152 -13.7526 7.45389 -1.08108 -1.25297 -5.13066 -0.834554 2.14166 
10.3833 101.47 19.8895 -150.506 -81.6583 -151.138 -173.961 -2.4847 87.9483 -13.2063 5.53368 0.0186343 70.2865 5.84648 -1.51263 15.9472 -10.2489 7.87135 171.88 -3.51363 89.5316 -14.3201 -2.64237 0.499147 69.181 -5.45144 1.94588 23.3595 1.53815 3.92647 0.262127 7.64605 -90.1202 11.5824 0.465219 -0.287457 -0.0885441 0.452122 -0.307669 -22.6243 0.530103 -0.134349 -2.61164 0.530104 -0.134357 90.5951 -30.9914 -105.221 39.3012 -8.72643 -6.64034 6.59217 -33.9394 -14.3172 -23.93 -0.31666 -9.89049 -88.8123 -54.4324 81.3334 -22.2139 12.5777 -13.1372 -4.52844 14.7405 0.00378542 4.89852 -0.24402 -14.4839 6.91788 -1.24178 -1.30096 -4.72937 -0.984559 2.42089 
10.3932 101.474 19.9369 -149.44 -81.6933 -149.99 -174.035 -2.26611 87.9397 -13.4816 5.34737 0.121099 70.2557 5.71477 -1.63878 16.4875 -10.0868 8.20222 172.113 -3.82233 89.6739 -13.862 -2.49761 0.378995 69.1442 -5.44451 1.9853 23.3065 1.52054 4.08443 0.265967 7.63762 -90.1314 11.5993 0.467548 -0.31028 -0.0715794 0.453435 -0.330569 -22.6073 0.53918 -0.155415 -2.59467 0.539178 -0.155424 90.5836 -30.9475 -105.258 39.3442 -8.72288 -6.67162 6.46307 -34.9137 -14.43 -22.6778 -0.68656 -7.99861 -88.6523 -54.6187 81.5949 -21.9224 12.9387 -13.2521 -4.76656 13.9588 -0.135604 4.55373 -0.208606 -14.2335 6.83795 -1.1196 -1.11015 -4.70551 -0.90018 2.14598 
10.4424 101.476 19.9925 -149.125 -81.8217 -149.642 -174.069 -2.10151 87.9248 -13.6023 5.42281 0.144836 70.3584 5.79606 -1.62678 16.3352 -10.2529 8.34163 172.036 -3.50771 89.6716 -13.9878 -2.63676 0.482714 68.8789 -5.33431 1.77901 23.7959 1.3331 3.9929 0.25921 7.62603 -90.1532 11.6224 0.443912 -0.351322 -0.0485379 0.428021 -0.370532 -22.5841 0.528979 -0.201658 -2.5715 0.528974 -0.201673 90.6832 -30.7001 -105.151 39.4398 -8.45011 -6.73518 6.6222 -35.1571 -13.8774 -22.2896 -0.570869 -8.84949 -88.6773 -54.9793 81.6227 -21.311 13.7752 -13.2872 -5.05 13.3312 -0.291018 4.87152 -0.295911 -14.672 6.70302 -1.08277 -0.811281 -4.75072 -0.924178 2.03349 
10.4706 101.442 20.0979 -150.396 -82.035 -151.125 -174.173 -2.23565 87.7027 -13.2787 5.56985 0.116922 70.342 5.97414 -1.39336 16.329 -10.2764 8.37992 171.785 -3.28696 89.3909 -14.3075 -2.40109 0.561818 69.2621 -5.41266 2.19657 23.6777 1.49422 3.55526 0.21675 7.60585 -90.1146 11.6626 0.377402 -0.26784 -0.00829186 0.365257 -0.284198 -22.5438 0.440453 -0.142031 -2.53116 0.440449 -0.142036 90.5747 -30.8963 -105.294 39.4121 -8.4379 -6.61158 6.53716 -35.0039 -14.0133 -23.1667 -0.735284 -7.7135 -88.6118 -54.7188 81.6701 -22.0201 12.7016 -13.1069 -4.58146 14.5941 -0.0802709 4.63969 -0.124467 -13.2551 6.37453 -1.03852 -1.04354 -4.59282 -0.83636 2.13778 
10.5032 101.458 20.1326 -150.485 -82.0349 -151.255 -174.219 -2.31482 87.6178 -13.1629 5.46798 0.131188 70.2306 5.91334 -1.42461 16.4894 -9.91843 7.87579 171.847 -3.34917 89.3723 -14.2505 -2.36554 0.439772 69.214 -5.3701 2.19027 23.7296 1.4304 3.71874 0.202713 7.61132 -90.1171 11.6517 0.348382 -0.269637 -0.0192378 0.336171 -0.284713 -22.5547 0.413309 -0.152464 -2.54203 0.413305 -0.152472 90.4664 -30.9151 -105.5 39.3216 -8.47235 -6.54393 6.83306 -32.6257 -13.776 -23.5769 -0.329146 -9.55633 -88.5754 -55.0311 81.7764 -21.518 12.8942 -13.1796 -4.90159 14.0991 -0.23529 4.84287 -0.185695 -13.5508 6.42641 -0.915948 -0.619171 -4.7648 -0.795541 1.57137 
10.5133 101.473 20.2201 -151.318 -81.9487 -152.241 -174.264 -2.574 87.4771 -13.0474 5.68439 0.110744 70.0807 5.88191 -1.31613 16.6267 -10.1036 8.40335 171.641 -3.46248 89.1455 -14.4178 -2.87905 0.495899 69.2712 -5.42875 1.6901 23.7338 1.40123 3.82761 0.188165 7.62733 -90.0959 11.6195 0.329384 -0.22533 -0.0513828 0.319154 -0.239611 -22.5868 0.381875 -0.115915 -2.57417 0.381878 -0.115916 90.3998 -31.0418 -105.585 39.2354 -8.37763 -6.44376 6.77598 -31.0764 -13.8942 -24.6867 -0.0751395 -10.4678 -88.4339 -54.8729 81.95 -21.7681 12.9484 -13.1576 -4.67606 13.8505 -0.277316 4.50647 -0.172366 -13.7733 6.54575 -0.935274 -0.805041 -4.8776 -0.782673 1.90599 
10.5017 101.473 20.2417 -151.181 -81.8827 -151.997 -174.159 -2.59652 87.637 -13.1174 5.78709 0.0767492 70.1107 5.90072 -1.27837 16.8261 -9.99754 8.43654 171.715 -3.56962 89.2669 -14.3418 -3.03432 0.47786 69.2351 -5.4451 1.62269 23.7 1.48733 3.54424 0.175084 7.62829 -90.1272 11.6176 0.288715 -0.283465 -0.0533008 0.275964 -0.295895 -22.5886 0.360558 -0.183586 -2.57594 0.360557 -0.183589 90.4599 -30.7291 -105.58 39.4299 -8.33386 -6.44735 6.61297 -32.0058 -13.9902 -24.1529 -0.165273 -10.269 -88.1995 -55.1577 82.3308 -21.7247 12.7609 -13.0487 -4.63343 14.2799 -0.382418 4.68788 -0.191747 -13.9372 6.61525 -0.766714 -0.0315448 -4.97222 -0.762485 1.26474 
10.4661 101.479 20.2606 -150.133 -81.7241 -150.852 -174.092 -2.71739 87.7454 -13.0436 5.37186 0.0841917 70.3763 5.97847 -1.50223 16.1266 -10.2181 8.02506 171.938 -3.83517 89.4574 -13.9869 -2.27496 0.323121 69.2816 -5.39432 2.32903 23.5561 1.47348 3.84675 0.212553 7.63443 -90.1315 11.6055 0.361281 -0.299384 -0.0654325 0.347757 -0.315007 -22.6009 0.434558 -0.176958 -2.58822 0.434553 -0.176971 90.5631 -30.8866 -105.321 39.3985 -8.23837 -6.53519 6.62847 -32.8652 -13.7923 -24.4736 -0.129383 -10.6204 -88.25 -55.0674 82.244 -21.5492 13.1104 -13.0271 -4.93032 13.9996 -0.383644 5.42364 -0.343964 -14.6823 6.57148 -0.784073 -0.362568 -4.84449 -0.714373 1.38457 
10.4997 101.476 20.318 -150.202 -81.8819 -151.082 -174.316 -2.73493 87.4605 -12.8356 5.18587 0.200805 70.2332 5.89496 -1.60636 16.4079 -10.1733 8.27466 171.723 -3.71503 89.2163 -13.997 -2.53629 0.436102 69.3392 -5.43297 2.08888 23.6142 1.48192 3.71297 0.21257 7.62141 -90.1003 11.6314 0.375853 -0.238994 -0.0394676 0.364974 -0.255313 -22.575 0.4303 -0.114983 -2.56236 0.430308 -0.114986 90.6302 -31.0754 -105.122 39.3768 -8.26137 -6.55134 6.6326 -33.8268 -13.779 -24.1637 -0.1804 -10.6192 -88.3571 -54.7562 82.0392 -22.0298 12.6523 -12.939 -4.67286 14.1999 -0.273276 4.32888 -0.211836 -14.7149 6.61526 -0.807446 -0.834513 -4.57158 -0.645438 1.8766 
